<?xml version="1.0" encoding="UTF-8"?>
<svg width="752pt" height="752pt" version="1.1" viewBox="0 0 752 752"
    xmlns="http://www.w3.org/2000/svg">
    <path
        d="m579.29 273.62c-0.65234-0.14062-1.3164-0.22266-2.0117-0.22266h-88.352v-47.348c0-13.508-10.988-24.492-24.492-24.492h-176.86c-13.508 0-24.492 10.988-24.492 24.492v47.348h-88.352c-0.69141 0-1.3594 0.085937-2.0117 0.22266h-6.9375v6.2734c-0.3125 0.9375-0.51953 1.9258-0.51953 2.9688v112.29c0 1.0469 0.20703 2.0312 0.51953 2.9688v154.99h422.57v-279.5c-3.0234 0.007813-6.043 0.007813-9.0664 0.007813zm-297.26-47.57c0-3.0586 2.4844-5.5508 5.5508-5.5508h176.86c3.0586 0 5.5508 2.4922 5.5508 5.5508v47.336h-187.96zm-96.449 306.3v-127.73h42.148v18.043c0 5.2266 4.2422 9.4727 9.4727 9.4727h70.707c5.2266 0 9.4727-4.2422 9.4727-9.4727v-18.043h117.26v18.043c0 5.2266 4.2422 9.4727 9.4727 9.4727h70.707c5.2266 0 9.4727-4.2422 9.4727-9.4727v-18.043h44.398v127.73h-383.11zm329.23-176.88h-70.707c-5.2266 0-9.4727 4.2422-9.4727 9.4727v20.742h-117.26v-20.742c0-5.2266-4.2422-9.4727-9.4727-9.4727h-70.703c-5.2266 0-9.4727 4.2422-9.4727 9.4727v20.742h-42.148v-92.004h382.23v92.004h-43.523v-20.742c0.003906-5.2305-4.2422-9.4727-9.4688-9.4727zm-61.234 39.684v-20.742h51.762v38.785l-51.762 0.003906zm-206.91 0v-20.742h51.762v38.785l-51.762 0.003906z" />
</svg>
