<?xml version="1.0" encoding="UTF-8"?>
<svg width="752pt" height="752pt" version="1.1" viewBox="0 0 752 752" xmlns="http://www.w3.org/2000/svg">
 <path d="m234.88 315.86 25.102-57.305zm-20.84 5.2109m45.938-62.988m-25.098 57.777 42.621-10.418zm25.098-57.777-25.102 57.305zm288.41 140.18m0-0.47266m17.047-41.676v138.29c0 33.152-26.992 60.617-60.617 60.617h-248.16c-33.152 0-60.621-27.469-60.621-60.617v-55.883c0-4.7344 3.7891-8.5234 8.9961-8.5234 4.7344 0 8.0508 4.2617 8.0508 8.9961v56.355c0 23.68 18.941 42.621 42.621 42.621h249.11c24.152 0 43.57-19.418 43.57-43.57l0.003907-79.086h-335.3c-9.4727 0-17.051-7.5781-17.051-17.051v-58.723l-5.2109-19.891c-3.7891-15.629-1.8945-31.258 6.6289-44.988 8.5234-14.207 21.785-23.68 37.887-27.941l239.63-58.25c8.9961-2.3672 17.523-2.3672 26.047-0.47266 5.6836 0.94531 11.367 2.8398 16.102 5.2109 15.156 7.5781 27.469 21.312 31.73 38.832l0.94531 3.3164c1.4219 5.2109 0.47266 10.891-2.3672 15.629-2.8398 4.7344-7.5781 8.0508-13.262 9.4727l-304.51 74.348v1.4219l53.516-0.47266h261.9c11.359-0.003906 20.355 8.9961 20.355 20.359zm-74.824-102.29 39.781-9.4727c1.4219-0.47266 2.3672-1.4219 2.3672-1.8945 0.47266-0.47266 0.47266-1.4219 0.47266-2.8398l-0.94922-3.3125c-3.3164-12.312-11.367-22.258-22.258-27.469zm-38.363-42.148-25.102 57.777 43.098-10.418 24.152-54.934h-4.2617c-3.3164 0-7.1055 0.47266-10.891 1.4219zm-64.406 15.629-25.102 57.777 43.57-10.418 25.102-57.777zm-63.934 15.629-25.57 57.301 43.57-10.418 25.102-57.777zm-63.934 15.152-25.102 57.305 42.621-10.418 25.102-57.777-42.621 10.891-25.102 57.305zm-12.312-13.258m-8.0508 18.469m-25.574 57.777 25.102-57.777c-11.367 2.8398-21.312 9.9453-27.469 19.891-4.2617 6.6289-6.1562 14.207-6.1562 21.785 0 3.3164 0.47266 7.1055 1.4219 10.418l1.8945 6.6289zm45.465 77.191-37.414-45.465h-8.9961v40.727c0 2.8398 2.3672 4.7344 4.7344 4.7344zm22.258 0h44.516l-37.414-45.465h-44.516zm66.301 0h44.516l-37.414-45.465h-44.516zm66.777 0h44.516l-37.414-45.465h-44.516zm66.773 0h44.516l-37.414-45.465h-44.516zm66.777-0.94531v-40.254c0-2.3672-1.8945-4.2617-4.2617-4.2617h-33.152zm0.47266 0.94531m-221.64 63.461h100.4c1.8945 0 4.2617-0.94531 5.6836-2.3672 1.4219-1.4219 2.3672-3.3164 2.3672-5.6836 0-1.8945-0.94531-4.2617-2.3672-5.6836-1.4219-1.4219-3.3164-2.3672-5.6836-2.3672h-100.4c-1.8945 0-4.2617 0.94531-5.6836 2.3672-1.8945 1.8945-2.8398 5.2109-1.8945 8.0508 0.47266 1.4219 0.94531 2.3672 1.8945 3.3164 1.4219 1.4219 3.3164 2.3672 5.6836 2.3672z"/>
</svg>
