<?xml version="1.0" encoding="UTF-8"?>
<svg width="752pt" height="752pt" version="1.1" viewBox="0 0 752 752" xmlns="http://www.w3.org/2000/svg">
 <g>
  <path d="m530.15 221.32c-17.668 0-34.316 8.2578-45.008 22.32-10.691 14.062-14.195 32.316-9.4688 49.34 4.7266 17.02 17.137 30.855 33.547 37.395v118.87c0 33.988-18.133 65.395-47.566 82.391-29.438 16.996-65.703 16.996-95.137 0-29.438-16.996-47.57-48.402-47.57-82.391v-55.07c39.648-11.844 70.938-42.434 83.672-81.805l26.047-81.426v-0.003906c4.2188-13.254 1.8594-27.723-6.3477-38.953-8.207-11.227-21.277-17.867-35.184-17.875h-21.867c-3.9727-4.875-9.7852-7.8867-16.059-8.3242-6.2773-0.4375-12.449 1.7422-17.062 6.0195-4.6094 4.2773-7.2461 10.27-7.2812 16.559v13.359c0.027343 6.0391 2.4492 11.816 6.7383 16.066 4.293 4.2461 10.094 6.6133 16.133 6.5781 6.8125 0.023437 13.266-3.0625 17.523-8.3828h21.875c0.53906 0.019531 1.0352 0.28516 1.3594 0.71875 0.30859 0.44531 0.38672 1.0156 0.20703 1.5312l-25.961 81.418c-9.0078 27.941-32.051 49.09-60.668 55.664l-4.0586 0.94531-4.0664-0.94531c-28.645-6.5273-51.711-27.691-60.676-55.664l-11.035-34.43c-1.1953-3.7383-5.1953-5.7969-8.9336-4.5977-3.7344 1.1992-5.793 5.1992-4.5977 8.9336l11.012 34.41c10.504 32.773 37.531 57.562 71.086 65.203l5.6367 1.2773c1.0352 0.23438 2.1094 0.23438 3.1484 0l5.6328-1.2773h-0.003906c33.523-7.6953 60.523-32.461 71.078-65.199l25.953-81.457-0.003906 0.003906c1.5703-4.8555 0.70703-10.168-2.3242-14.273-3.0156-4.0391-7.7461-6.4375-12.785-6.4805h-18.406v-13.449h18.41c9.3789 0.003906 18.191 4.4805 23.727 12.055 5.5312 7.5742 7.1172 17.332 4.2656 26.27l-26.047 81.414v-0.003907c-11.84 36.598-41.715 64.504-79.035 73.816-3.5547 0.83594-5.8672 4.2617-5.3086 7.8672v59.5c0 39.066 20.84 75.164 54.672 94.695 33.832 19.535 75.516 19.535 109.34 0 33.832-19.531 54.676-55.629 54.676-94.695v-123.91c0-3.1641-2.0938-5.9453-5.1289-6.8242-13.137-3.8594-23.594-13.844-28.059-26.785-4.4688-12.941-2.3906-27.246 5.5664-38.387 7.9609-11.145 20.82-17.742 34.512-17.711 13.691 0.03125 26.523 6.6836 34.434 17.859 7.9102 11.176 9.9219 25.492 5.3984 38.414s-15.02 22.859-28.176 26.66c-3.0312 0.88672-5.1133 3.6641-5.1133 6.8203v123.86c0.023437 31.938-12.398 62.625-34.633 85.551-22.234 22.922-52.527 36.277-84.449 37.23s-62.957-10.574-86.52-32.133c-1.3867-1.2969-3.2344-1.9844-5.1289-1.9102-1.8984 0.078125-3.6875 0.90625-4.9688 2.3086-1.2773 1.4023-1.9453 3.2578-1.8477 5.1562 0.097657 1.8945 0.94922 3.6719 2.3672 4.9375 26.285 24.051 60.914 36.914 96.531 35.852 35.613-1.0625 69.414-15.965 94.223-41.543 24.805-25.578 38.668-59.816 38.645-95.449v-118.82c16.43-6.5312 28.859-20.371 33.598-37.406 4.7344-17.035 1.2305-35.305-9.4766-49.375-10.703-14.074-27.375-22.328-45.055-22.312zm-182.65-11.176c-4.6484 0-8.4258-3.7656-8.4375-8.418v-13.367c0.019531-2.2734 0.94922-4.4414 2.5781-6.0234s3.8281-2.4414 6.0977-2.3945c2.7344 0.015625 5.2773 1.3945 6.7852 3.6719v22.852c-1.5703 2.3281-4.2109 3.7109-7.0234 3.6797z"/>
  <path d="m167.37 230.95 26 81.402h-0.003907c12.723 39.406 44.039 70.016 83.723 81.836v55.043c-0.09375 29.863 9.6719 58.922 27.773 82.668 1.1328 1.5234 2.8242 2.5312 4.7031 2.8008 1.875 0.26562 3.7812-0.23047 5.293-1.375s2.5-2.8477 2.75-4.7305c0.25-1.8789-0.26562-3.7812-1.4258-5.2812-16.223-21.281-24.969-47.32-24.887-74.082v-59.438c0-0.18359 0.046875-0.84766 0.046875-1.0312 0-3.2734-2.2344-6.1211-5.4102-6.9023-37.332-9.2969-67.219-37.211-79.035-73.824l-26.008-81.414c-2.8438-8.9375-1.2578-18.691 4.2773-26.262 5.5312-7.5742 14.344-12.051 23.719-12.055h18.359v13.449h-18.348c-5.0586-0.019531-9.8164 2.3945-12.789 6.4883-3.0508 4.0977-3.9453 9.4102-2.4102 14.281l7.8203 24.484c1.2031 3.7266 5.1914 5.7773 8.918 4.5859 3.7305-1.1875 5.793-5.1719 4.6172-8.9062l-7.8086-24.461v0.003906c-0.17188-0.53125-0.0625-1.1094 0.28906-1.5391 0.29688-0.46484 0.81641-0.74219 1.3672-0.73047h21.828c3.9648 4.8945 9.7812 7.9258 16.062 8.3672 6.2852 0.44531 12.469-1.7383 17.082-6.0273 4.6133-4.2891 7.2383-10.301 7.25-16.602v-13.348c-0.023438-6.0391-2.4492-11.816-6.7422-16.062-4.2891-4.25-10.094-6.6133-16.129-6.5742-6.8164-0.023438-13.266 3.0625-17.523 8.3828h-21.832c-13.914 0-26.992 6.6445-35.199 17.883-8.207 11.234-10.559 25.711-6.3281 38.969zm81.113-51.016c4.6523 0.007812 8.4258 3.7773 8.4297 8.4297v13.355c-0.015625 2.2734-0.94141 4.4453-2.5703 6.0312-1.6289 1.582-3.8242 2.4492-6.0977 2.4023-2.7266-0.015625-5.2695-1.3906-6.7812-3.6641v-22.902c1.5781-2.3164 4.2148-3.6875 7.0195-3.6523z"/>
  <path d="m559.57 277.9c0-7.8203-3.1094-15.32-8.6406-20.852-5.5312-5.5273-13.031-8.6328-20.852-8.6328-7.8242 0-15.324 3.1094-20.852 8.6406-5.5312 5.5312-8.6367 13.031-8.6367 20.855 0.003906 7.8203 3.1094 15.32 8.6406 20.848 5.5312 5.5312 13.035 8.6367 20.855 8.6367 7.8203-0.007812 15.316-3.1211 20.844-8.6484 5.5273-5.5312 8.6367-13.027 8.6406-20.848zm-29.484 15.289c-4.0547 0-7.9414-1.6094-10.809-4.4727-2.8672-2.8672-4.4766-6.7539-4.4805-10.805 0-4.0547 1.6094-7.9414 4.4727-10.809 2.8672-2.8672 6.7539-4.4805 10.809-4.4805 4.0508 0 7.9375 1.6094 10.805 4.4727 2.8672 2.8672 4.4805 6.7539 4.4805 10.805-0.003906 4.0508-1.6133 7.9375-4.4766 10.805-2.8672 2.8633-6.75 4.4766-10.801 4.4844z"/>
 </g>
</svg>
