<?xml version="1.0" encoding="UTF-8"?>
<svg width="752pt" height="752pt" version="1.1" viewBox="0 0 752 752" xmlns="http://www.w3.org/2000/svg">
 <g>
  <path d="m420.63 351.39c-14.996-14.996-35.016-23.32-56.328-23.32s-41.332 8.25-56.328 23.32c-14.996 15.07-23.32 35.016-23.32 56.328s8.25 41.332 23.32 56.328c14.996 14.996 35.016 23.32 56.328 23.32s41.332-8.25 56.328-23.32c30.996-31.07 30.996-81.586 0-112.66zm-7.6055 105.05c-12.988 12.988-30.281 20.164-48.723 20.164-18.441 0-35.734-7.1758-48.723-20.164s-20.164-30.281-20.164-48.723 7.1758-35.734 20.164-48.723c12.988-12.988 30.281-20.164 48.723-20.164 18.441 0 35.734 7.1758 48.723 20.164 26.836 26.84 26.836 70.539 0 97.445z"/>
  <path d="m552.09 555.39-66.301-66.301c-6.1719-6.1719-14.711-9.1133-23.32-8.1094l-9.543-9.543c30.711-42.695 26.98-102.61-11.336-141-42.621-42.621-111.94-42.621-154.56 0s-42.621 111.94 0 154.56c21.312 21.312 49.297 31.93 77.281 31.93 22.387 0 44.773-6.9609 63.719-20.594l9.543 9.543c-1.0039 8.6094 1.9375 17.148 8.1094 23.25l66.301 66.375c5.5234 5.5234 12.773 8.3242 20.09 8.3242 7.2461 0 14.566-2.7969 20.09-8.3242 5.3828-5.3828 8.3242-12.484 8.3242-20.09-0.074219-7.5352-3.0859-14.711-8.3984-20.023zm-257.53-77.996c-38.391-38.391-38.391-100.96 0-139.35 19.23-19.23 44.418-28.844 69.672-28.844 25.258 0 50.445 9.6133 69.672 28.844 38.391 38.391 38.391 100.96 0 139.35-38.383 38.391-100.88 38.391-139.34 0zm249.92 110.5c-6.8867 6.8867-18.082 6.8867-24.898 0l-66.301-66.301c-4.2344-4.2344-6.0273-10.406-4.6641-16.359 0.42969-1.793-0.14453-3.6602-1.4336-4.9492l-10.547-10.547c0.070312-0.070312 0.14453-0.21484 0.21484-0.35938 1.5781-1.4336 3.3008-2.7969 4.8086-4.3789 1.5781-1.5781 2.9414-3.2305 4.3789-4.8789 0.070313-0.070313 0.21484-0.070313 0.28516-0.14453l10.547 10.547c1.293 1.293 3.1562 1.8672 4.9492 1.4336 5.957-1.3633 12.055 0.42969 16.359 4.6641l66.301 66.375c3.3008 3.3008 5.168 7.75 5.168 12.484 0 4.6641-1.8672 9.1133-5.168 12.414z"/>
  <path d="m395.52 376.43c-2.082-2.082-5.5234-2.082-7.6055 0l-23.605 23.605-23.605-23.605c-2.082-2.082-5.5234-2.082-7.6055 0-2.082 2.082-2.082 5.5234 0 7.6055l23.605 23.68-23.605 23.605c-2.082 2.082-2.082 5.5234 0 7.6055 1.0781 1.0781 2.4414 1.5781 3.8047 1.5781 1.3633 0 2.7266-0.50391 3.8047-1.5781l23.605-23.605 23.605 23.605c1.0781 1.0781 2.4414 1.5781 3.8047 1.5781 1.3633 0 2.7266-0.50391 3.8047-1.5781 2.082-2.082 2.082-5.5234 0-7.6055l-23.605-23.605 23.605-23.68c2.0703-2.082 2.0703-5.4531-0.007813-7.6055z"/>
  <path d="m310.85 190.88h135.98c2.9414 0 5.3828-2.4414 5.3828-5.3828-0.003906-2.9414-2.4414-5.3828-5.3828-5.3828h-135.98c-2.9414 0-5.3828 2.4414-5.3828 5.3828 0 2.9414 2.4414 5.3828 5.3828 5.3828z"/>
  <path d="m446.89 208.6h-136.12c-2.9414 0-5.3828 2.4414-5.3828 5.3828 0 2.9414 2.4414 5.3828 5.3828 5.3828h136.12c2.9414 0 5.3828-2.4414 5.3828-5.3828 0-2.9414-2.4414-5.3828-5.3828-5.3828z"/>
  <path d="m446.89 237.37h-71.469c-2.9414 0-5.3828 2.4414-5.3828 5.3828s2.4414 5.3828 5.3828 5.3828h71.469c2.9414 0 5.3828-2.4414 5.3828-5.3828s-2.4414-5.3828-5.3828-5.3828z"/>
  <path d="m446.89 266.07h-71.469c-2.9414 0-5.3828 2.4414-5.3828 5.3828 0 2.9414 2.4414 5.3828 5.3828 5.3828h71.469c2.9414 0 5.3828-2.4414 5.3828-5.3828 0-2.9453-2.4414-5.3828-5.3828-5.3828z"/>
  <path d="m463.97 565h-232.99v-17.797h204.43c2.9414 0 5.3828-2.4414 5.3828-5.3828 0-2.9414-2.4414-5.3828-5.3828-5.3828l-233.06 0.003906v-304.1h68.023c2.9414 0 5.3828-2.4414 5.3828-5.3828v-68.02h206.08v311.41c0 2.9414 2.4414 5.3828 5.3828 5.3828s5.3828-2.4414 5.3828-5.3828l-0.003907-282.86h17.797v308.76c0 2.9414 2.4414 5.3828 5.3828 5.3828s5.3828-2.4414 5.3828-5.3828l-0.003906-314.14c0-2.9414-2.4414-5.3828-5.3828-5.3828h-23.176v-23.176c0-2.9414-2.4414-5.3828-5.3828-5.3828h-216.77c-1.4336 0-2.7969 0.57422-3.8047 1.5781l-73.473 73.406c-1.0039 1.0039-1.5781 2.3672-1.5781 3.8047v314.79c0 2.9414 2.4414 5.3828 5.3828 5.3828h23.176v23.176c0 2.9414 2.4414 5.3828 5.3828 5.3828h238.37c2.9414 0 5.3828-2.4414 5.3828-5.3828-0.003906-2.9453-2.3711-5.3125-5.3125-5.3125zm-254.01-343.42 55.035-55.035v55.035z"/>
 </g>
</svg>
