<?xml version="1.0" encoding="UTF-8"?>
<svg width="752pt" height="752pt" version="1.1" viewBox="0 0 752 752" xmlns="http://www.w3.org/2000/svg">
 <g>
  <path d="m600.46 534.3-98.668-204.39v-138.9h14.801v-44.398h-118.4v44.398h14.801v14.801h-266.39v340.39h163.81c-0.62891 3.1719-1.0156 6.4062-1.0156 9.6406 0 27.328 22.23 49.555 49.559 49.555h196.87c27.336 0 49.562-22.227 49.562-49.555 0-7.4219-1.6992-14.871-4.9258-21.539zm-187.46-372.89h88.797v14.801h-88.797zm73.996 29.598v142.29l27.766 57.504h-114.73l27.766-57.504v-142.29zm-114.11 221.99h-181.88v-103.6h221.99v18.102c-4.6484-2.0938-9.6211-3.3008-14.801-3.3008-20.402 0-37 16.598-37 37 0 14.266 8.3672 26.941 20.734 33.062zm15.457-32.012c-7.3633-3.6914-12.344-11.27-12.344-19.785 0-12.238 9.9609-22.199 22.199-22.199 3.707 0 6.7852 0.96875 9.3398 2.2109zm37.398 24.613c-2.5664 4.4023-7.2891 7.3984-12.742 7.3984s-10.176-2.9961-12.742-7.3984zm-12.742-184.99v44.398h-251.59v-44.398zm-251.59 59.195h251.59v14.801h-236.79v133.2h189.54l-7.1484 14.801-182.39-0.003906v14.801h175.25l-7.1484 14.801h-168.1v14.801h160.96l-7.1484 14.801-153.81-0.003906v14.801h146.67l-7.1484 14.801-154.32-0.003907zm394.43 310.79h-196.88c-19.168 0-34.758-15.594-34.758-34.758 0-5.2031 1.1914-10.426 3.457-15.109l60.816-125.97c5.3203 7.8672 14.328 13.047 24.523 13.047 13.758 0 25.242-9.4648 28.547-22.199h80.352l65.234 135.12c2.2695 4.6836 3.4609 9.9062 3.4609 15.109 0 19.164-15.594 34.758-34.758 34.758z"/>
  <path d="m501.8 420.4c-16.324 0-29.598 13.273-29.598 29.598 0 16.324 13.273 29.598 29.598 29.598s29.598-13.273 29.598-29.598c0-16.32-13.273-29.598-29.598-29.598zm0 44.398c-8.1602 0-14.801-6.6367-14.801-14.801 0-8.1602 6.6367-14.801 14.801-14.801 8.1602 0 14.801 6.6367 14.801 14.801 0 8.1641-6.6406 14.801-14.801 14.801z"/>
  <path d="m405.6 501.8c-16.324 0-29.598 13.273-29.598 29.598s13.273 29.598 29.598 29.598c16.324 0 29.598-13.273 29.598-29.598s-13.273-29.598-29.598-29.598zm0 44.398c-8.1602 0-14.801-6.6367-14.801-14.801 0-8.1602 6.6367-14.801 14.801-14.801 8.1602 0 14.801 6.6367 14.801 14.801-0.003906 8.1641-6.6406 14.801-14.801 14.801z"/>
  <path d="m176.21 235.41h14.801v14.801h-14.801z"/>
  <path d="m205.81 235.41h14.801v14.801h-14.801z"/>
  <path d="m235.41 235.41h14.801v14.801h-14.801z"/>
  <path d="m250.21 324.2c-20.402 0-37 16.598-37 37s16.598 37 37 37c20.402 0 37-16.598 37-37-0.003906-20.402-16.598-37-37-37zm0 59.199c-12.238 0-22.199-9.9609-22.199-22.199s9.9609-22.199 22.199-22.199 22.199 9.9609 22.199 22.199-9.9609 22.199-22.199 22.199z"/>
  <path d="m324.2 324.2c-20.402 0-37 16.598-37 37s16.598 37 37 37 37-16.598 37-37-16.598-37-37-37zm0 59.199c-12.238 0-22.199-9.9609-22.199-22.199s9.9609-22.199 22.199-22.199 22.199 9.9609 22.199 22.199-9.9609 22.199-22.199 22.199z"/>
 </g>
</svg>
