<?xml version="1.0" encoding="UTF-8"?>
<svg width="752pt" height="752pt" version="1.1" viewBox="0 0 752 752" xmlns="http://www.w3.org/2000/svg">
 <defs>
  <clipPath id="b">
   <path d="m238 139.21h93v92.789h-93z"/>
  </clipPath>
  <clipPath id="a">
   <path d="m156 235h318v377.79h-318z"/>
  </clipPath>
 </defs>
 <g clip-path="url(#b)">
  <path d="m272.91 140.79c-24.445 6.5664-38.93 31.75-32.352 56.238 6.5781 24.496 31.73 39.031 56.176 32.473 24.445-6.5664 38.93-31.75 32.352-56.246-6.5703-24.496-31.73-39.031-56.176-32.469z" fill-rule="evenodd"/>
 </g>
 <g clip-path="url(#a)">
  <path d="m303.26 383.01c-33.652 137.77-30.457 74.723-20.715 213.64 5.1836 24.57 44.836 19.496 44.43-4.4062l-5.6953-81.285c-0.48047-6.9141-0.57812-11.398 1.0547-18.09l8.5625-35.043 0.65234 30.602c0.48828 5.5352 1.4531 11.941 8.5195 15.801l99.043 47.785c25.961 7.4219 41.938-25.445 19.32-40.32l-75.152-36.254c-7.5352-3.8125-7.5039-10.141-7.8086-17.309l-1.4766-70.789-28.617-108.2c56.969 5.9922 35.156-2.2773 96.824 44.164 17.738 13.484 42.762-10.238 25.137-29.125-75.121-57.867-52.395-45.344-140.27-58.355-0.0625 0.15234-38.133 6.8672-53.066 14.199-55.219 73.188-26.012 54.223-105.93 89.34-20.441 8.8672-12 42.297 13.105 36.172 87.223-37.199 61.922-11.043 103.07-65.57l19.027 73.035z"/>
 </g>
 <path d="m189.81 499.72c-25.305 0-45.832 20.57-45.832 45.926 0 25.363 20.523 45.934 45.832 45.934 25.312 0 45.836-20.57 45.836-45.934 0-25.355-20.523-45.926-45.836-45.926z" fill-rule="evenodd"/>
 <path d="m519.44 342.79c-11.586 0-11.586-22.375 0-22.375h79.891c11.594 0 11.594 22.375 0 22.375z"/>
 <path d="m505.46 286.93c-11.594 0-11.594-22.375 0-22.375h79.891c11.586 0 11.586 22.375 0 22.375z"/>
 <path d="m505.46 397.25c-11.594 0-11.594-22.375 0-22.375h79.891c11.586 0 11.586 22.375 0 22.375z"/>
</svg>
