<?xml version="1.0" encoding="UTF-8"?>
<svg width="752pt" height="752pt" version="1.1" viewBox="0 0 752 752" xmlns="http://www.w3.org/2000/svg">
 <g>
  <path d="m254.73 443.2c4.6016 8.1406 10.605 16.695 16.953 25.758 13.43 19.145 28.379 40.699 30.004 59.414l0.003906-0.003906c-5.6875 4.0234-9.0117 10.602-8.8828 17.57 0.023437 5 1.75 9.8477 4.9023 13.73-4.3828 4.3242-6.832 10.23-6.793 16.383 0 5.8906 2.3359 11.535 6.5 15.699 4.1641 4.1641 9.8086 6.5 15.699 6.5h125.8-0.003906c5.9648-0.035156 11.672-2.457 15.84-6.7227 4.1719-4.2695 6.4609-10.027 6.3594-15.992-0.003907-6.0195-2.4648-11.773-6.8086-15.941 3.1875-4.0352 4.918-9.0312 4.9141-14.176-0.011719-5.793-2.3867-11.328-6.5781-15.324-4.1914-3.9961-9.8359-6.1055-15.621-5.8398h-53.609v-140.85h14.801v22.199h-0.003906c0 1.9609 0.78125 3.8438 2.168 5.2305 1.3867 1.3867 3.2695 2.168 5.2344 2.168h22.199v8.7617c-6.6367 2.3477-11.77 7.6992-13.828 14.43-2.0625 6.7344-0.80859 14.043 3.3789 19.699 4.1875 5.6602 10.809 9 17.848 9 7.0391 0 13.66-3.3398 17.848-9 4.1836-5.6562 5.4375-12.965 3.3789-19.699-2.0586-6.7305-7.1914-12.082-13.828-14.43v-16.16c0-1.9648-0.77734-3.8477-2.168-5.2344-1.3867-1.3867-3.2695-2.168-5.2305-2.168h-22.199v-14.797h29.598c1.9648 0 3.8477-0.78125 5.2344-2.168s2.168-3.2695 2.168-5.2344v-14.797h45.758c2.3477 6.6367 7.7031 11.766 14.434 13.824 6.7305 2.0625 14.039 0.80859 19.699-3.3789 5.6562-4.1836 8.9961-10.809 8.9961-17.848 0-7.0391-3.3398-13.66-8.9961-17.844-5.6602-4.1875-12.969-5.4414-19.699-3.3828-6.7305 2.0625-12.086 7.1914-14.434 13.828h-45.758v-29.598h29.598c1.9609 0 3.8438-0.78125 5.2305-2.168 1.3906-1.3867 2.168-3.2695 2.168-5.2344v-30.957c6.6367-2.3477 11.77-7.7031 13.828-14.434 2.0586-6.7305 0.80469-14.039-3.3789-19.699-4.1875-5.6602-10.809-8.9961-17.848-8.9961-7.0391 0-13.66 3.3359-17.848 8.9961s-5.4414 12.969-3.3789 19.699c2.0586 6.7305 7.1914 12.086 13.828 14.434v23.559h-22.199v-14.801c0-1.9609-0.78125-3.8438-2.168-5.2305-1.3867-1.3867-3.2695-2.168-5.2344-2.168h-14.797v-38.359c6.6367-2.3477 11.766-7.7031 13.824-14.434 2.0625-6.7305 0.80859-14.039-3.3789-19.699-4.1836-5.6562-10.809-8.9961-17.848-8.9961-7.0391 0-13.66 3.3398-17.848 8.9961-4.1836 5.6602-5.4375 12.969-3.3789 19.699 2.0625 6.7305 7.1914 12.086 13.828 14.434v38.359h-29.598v-118.14c0-1.9609-0.78125-3.8438-2.168-5.2305s-3.2695-2.168-5.2344-2.168c-91.281 0-162.79 66.094-162.79 150.46 0 40.078 15.91 93.141 41.52 138.47zm180.47-8c2.9922 0 5.6914 1.8008 6.8359 4.5664 1.1445 2.7656 0.51172 5.9492-1.6055 8.0664-2.1133 2.1172-5.2969 2.75-8.0625 1.6016-2.7656-1.1445-4.5664-3.8438-4.5664-6.8359 0-4.0859 3.3125-7.3984 7.3984-7.3984zm81.398-88.797c2.9922 0 5.6875 1.8047 6.8359 4.5664 1.1445 2.7656 0.51172 5.9492-1.6055 8.0664-2.1172 2.1172-5.3008 2.75-8.0625 1.6055-2.7656-1.1484-4.5703-3.8438-4.5703-6.8398 0-4.0859 3.3125-7.3984 7.4023-7.3984zm-37-96.195c2.9922 0 5.6914 1.8008 6.8359 4.5664 1.1445 2.7656 0.51172 5.9492-1.6055 8.0664-2.1133 2.1133-5.2969 2.75-8.0625 1.6016-2.7656-1.1445-4.5664-3.8438-4.5664-6.8359 0-4.0859 3.3125-7.3984 7.3984-7.3984zm-59.199-37c2.9922 0 5.6914 1.8047 6.8359 4.5703 1.1484 2.7617 0.51562 5.9453-1.6016 8.0625-2.1172 2.1172-5.3008 2.75-8.0664 1.6055-2.7617-1.1484-4.5664-3.8438-4.5664-6.8359 0-4.0898 3.3125-7.4023 7.3984-7.4023zm-36.996 81.398h51.797v73.996h-51.797zm55.496 288.85h-125.8 0.003907c-2.043-0.035156-3.9883-0.89844-5.3828-2.3906-1.3945-1.4922-2.125-3.4883-2.0195-5.5273 0-4.0859 3.3125-7.4023 7.4023-7.4023h125.8-0.003906c2.043 0.035157 3.9844 0.89844 5.3789 2.3906 1.3984 1.4922 2.125 3.4883 2.0195 5.5273 0 1.9648-0.77734 3.8477-2.1641 5.2344-1.3906 1.3867-3.2695 2.168-5.2344 2.168zm-1.8945-44.398c1.9219-0.17969 3.8281 0.47266 5.2383 1.7852 1.4141 1.3125 2.1992 3.168 2.1602 5.0977 0 1.9609-0.77734 3.8438-2.1641 5.2305-1.3906 1.3867-3.2695 2.168-5.2344 2.168h-122c-2.043-0.035157-3.9883-0.89453-5.3828-2.3906-1.3945-1.4922-2.125-3.4883-2.0195-5.5273 0.070313-1.8516 0.91016-3.5898 2.3125-4.7969 1.4062-1.207 3.2461-1.7734 5.0898-1.5664zm-113.6-145.4c-3.4141-2.8906-6.582-6.0586-9.4727-9.4727-1.9531-2.2852-5.0938-3.1602-7.9492-2.2188l-9.7734 3.2109c-2.4297-3.5586-4.6172-7.2852-6.543-11.145l7.7617-6.957v0.003906c2.2461-2.0117 3.0469-5.1797 2.0273-8.0156-1.5078-4.1914-2.668-8.5039-3.4688-12.891-0.53906-2.9609-2.8164-5.3008-5.7656-5.918l-10.152-2.1367c-0.17578-2.293-0.26562-4.4414-0.26562-6.4883 0-2.0508 0.089843-4.1953 0.26562-6.4883l10.152-2.1367v-0.007812c2.9492-0.61719 5.2266-2.957 5.7656-5.918 0.80078-4.3867 1.9609-8.7031 3.4688-12.898 1.0195-2.8359 0.21875-6.0039-2.0273-8.0117l-7.7617-6.9492c1.9297-3.8555 4.1172-7.5781 6.543-11.145l9.7734 3.2109c2.8594 0.92969 5.9961 0.054688 7.957-2.2188 2.8945-3.418 6.0664-6.5938 9.4766-9.4961 2.2852-1.9492 3.1602-5.0859 2.2227-7.9375l-3.2031-9.7734-0.003906-0.003906c3.5508-2.4258 7.2578-4.6094 11.102-6.5391l6.957 7.7617c2.0078 2.2422 5.1758 3.0469 8.0117 2.0273 4.1914-1.5156 8.5039-2.6758 12.891-3.4727 2.9609-0.53516 5.3047-2.8164 5.918-5.7617l1.2891-5.8672v25.441-0.003906c-21.84 2.5156-41.035 15.645-51.289 35.09-10.258 19.445-10.258 42.699 0 62.145 10.254 19.445 29.449 32.574 51.289 35.09v25.445l-1.2266-5.8242c-0.61719-2.9492-2.957-5.2305-5.9219-5.7695-4.3867-0.79688-8.6953-1.957-12.891-3.4727-0.80078-0.28516-1.6484-0.43359-2.5-0.43359-2.1055 0-4.1094 0.89453-5.5117 2.4609l-6.957 7.7617c-3.8594-1.9258-7.582-4.1094-11.145-6.5391l3.2109-9.7734c0.94141-2.8672 0.050782-6.0195-2.2539-7.9648zm45.195-113.26v102.41c-16.566-2.3789-30.957-12.625-38.625-27.5-7.668-14.871-7.668-32.539 0-47.414 7.668-14.871 22.059-25.117 38.625-27.496zm0-111.17v51.695c-1.9609 0.14844-3.9648 0.32422-6.1133 0.58594-3.1406 0.37891-5.6914 2.7188-6.3477 5.8164l-2.2188 10.723c-1.8555 0.44531-3.6992 0.94141-5.5586 1.4805l-7.3984-8.2266v-0.003907c-2.1133-2.3633-5.5-3.1133-8.4141-1.8711-8.2812 3.5703-16.098 8.1367-23.281 13.59-2.5273 1.9102-3.5625 5.2148-2.5742 8.2227l3.3945 10.359c-1.4023 1.3164-2.7617 2.6758-4.0781 4.0781l-10.359-3.3945 0.003906-0.003906c-3.0078-0.97266-6.2969 0.058594-8.2148 2.5703-5.4492 7.1875-10 15.012-13.555 23.301-1.2422 2.9141-0.49219 6.3008 1.8711 8.4141l8.2266 7.3984c-0.55859 1.8516-1.0508 3.7031-1.4805 5.5586l-10.723 2.2188h0.003906c-3.0977 0.65625-5.4375 3.207-5.8164 6.3477-1.2031 8.9688-1.2031 18.059 0 27.023 0.37891 3.1445 2.7188 5.6953 5.8164 6.3516l10.723 2.2188c0.44531 1.8594 0.9375 3.7109 1.4805 5.5586l-8.2266 7.3984h-0.003907c-2.3633 2.1133-3.1133 5.4961-1.8711 8.4141 3.5703 8.2891 8.1367 16.109 13.598 23.293 1.9219 2.5156 5.2148 3.543 8.2227 2.5703l10.359-3.3945c1.3164 1.4023 2.6758 2.7617 4.0781 4.0781l-3.3945 10.359-0.003906-0.003907c-0.98828 3.0078 0.042968 6.3125 2.5703 8.2188 7.1797 5.4648 15 10.035 23.285 13.609 2.918 1.2422 6.3008 0.48828 8.4141-1.8711l7.3984-8.2266c1.8438 0.5625 3.6992 1.0586 5.5586 1.4805l2.2188 10.715v-0.003906c0.65234 3.0977 3.1992 5.4375 6.3438 5.8242 2.1445 0.25781 4.1523 0.44531 6.1211 0.58594l-0.003906 81.965h-52.375c-3.0273-21.801-18.59-43.992-32.477-63.801-6.1406-8.7617-11.941-17.02-16.184-24.539-24.07-42.582-39.609-94.078-39.609-131.19 0-73.758 61.172-132.08 140.59-135.5z"/>
  <path d="m440.45 506.98 13.758 5.4531h-0.003907c1.7695-4.375 3.8086-8.6328 6.1133-12.75l-12.957-7.1562c-2.6094 4.668-4.918 9.4922-6.9102 14.453z"/>
  <path d="m476.16 474.91-12.145-8.4492c-2.9141 4.1719-5.8164 8.4219-8.5898 12.711l12.426 8.0352c2.6836-4.1445 5.4961-8.25 8.3086-12.297z"/>
  <path d="m493.37 449.71-12.527-7.8516c-2.4922 3.9648-5.2773 8.0586-8.1914 12.27l12.156 8.4375c3.0508-4.4297 5.957-8.7109 8.5625-12.855z"/>
  <path d="m508.09 422.41-13.32-6.3711c-2.1211 4.4414-4.3398 8.8242-6.6602 13.156l13.055 6.9844c2.3906-4.5273 4.707-9.125 6.9258-13.77z"/>
  <path d="m520.14 394.09-13.852-5.1797c-1.7148 4.5742-3.5508 9.1602-5.4922 13.703l13.621 5.793c2.0234-4.7617 3.9297-9.5352 5.7227-14.316z"/>
  <path d="m538.17 319.02c0.41406-4.9219 0.62109-9.7227 0.62109-14.266v-1.4805l-14.801 0.11719v1.3555c0 4.1289-0.19141 8.5156-0.57813 13.023z"/>
  <path d="m520.61 275.12c1.0859 4.6367 1.9102 9.332 2.4648 14.059l14.703-1.7539c-0.62891-5.2578-1.5469-10.48-2.7539-15.641z"/>
  <path d="m511.07 248.33c2.0859 4.2695 3.9297 8.6562 5.5234 13.133l13.941-4.9492h-0.003906c-1.7734-5-3.8281-9.8906-6.1562-14.66z"/>
  <path d="m495.88 224.26c2.9648 3.7266 5.7266 7.6133 8.2734 11.633l12.5-7.8867c-2.8359-4.4688-5.9062-8.7852-9.1914-12.934z"/>
  <path d="m475.84 203.88c3.6797 3.043 7.1992 6.2734 10.547 9.6797l10.551-10.359c-3.7031-3.7656-7.5938-7.3398-11.66-10.707z"/>
  <path d="m472.61 183c-4.3203-2.9062-8.8789-5.6523-13.52-8.1406l-7.0391 13.023c4.2344 2.2852 8.3672 4.7891 12.297 7.3984z"/>
  <path d="m444.89 168.07c-4.7656-2.0352-9.7461-3.8711-14.801-5.4766l-4.5078 14.074c4.6094 1.4805 9.1445 3.1289 13.48 4.9727z"/>
  <path d="m414.89 158.45c-5.0781-1.125-10.293-2.0352-15.504-2.7148l-1.8945 14.688c4.7734 0.61328 9.5469 1.4414 14.191 2.4805z"/>
  <path d="m168.81 553.59h14.801v14.801h-14.801z"/>
  <path d="m168.81 583.19h14.801v14.801h-14.801z"/>
  <path d="m183.61 568.39h14.801v14.801h-14.801z"/>
  <path d="m154.01 568.39h14.801v14.801h-14.801z"/>
  <path d="m575.79 154.01h14.801v14.801h-14.801z"/>
  <path d="m575.79 183.61h14.801v14.801h-14.801z"/>
  <path d="m590.59 168.81h14.801v14.801h-14.801z"/>
  <path d="m560.99 168.81h14.801v14.801h-14.801z"/>
 </g>
</svg>
