<?xml version="1.0" encoding="UTF-8"?>
<svg width="752pt" height="752pt" version="1.1" viewBox="0 0 752 752" xmlns="http://www.w3.org/2000/svg">
 <g>
  <path d="m441.36 376c0 35.992-29.363 65.355-65.355 65.355s-65.355-29.363-65.355-65.355 29.363-65.355 65.355-65.355c35.992 0.003907 65.355 29.363 65.355 65.355z"/>
  <path d="m594.8 445.14-121.24-46.41c1.8945-5.6836 1.8945-11.367 2.8398-17.051l89.035-2.8398c4.7344 0 8.5234-3.7891 8.5234-9.4727s-3.7891-8.5234-9.4727-8.5234l-89.035 2.8398c-0.94531-5.6836-1.8945-11.367-3.7891-17.051l95.664-42.621c6.6289-2.8398 9.4727-10.418 6.6289-17.996-2.8398-6.6289-10.418-9.4727-17.996-6.6289l-94.711 43.57c-2.8398-4.7344-6.6289-9.4727-10.418-14.207l14.207-15.156c3.7891-3.7891 2.8398-9.4727 0-12.312-3.7891-3.7891-9.4727-2.8398-12.312 0l-14.207 15.156c-4.7344-3.7891-9.4727-6.6289-14.207-9.4727l43.57-113.66c2.8398-6.6289-0.94531-14.207-7.5781-17.051-6.6328-2.8398-15.156 1.8945-17.996 8.5273l-43.57 113.66c-5.6836-1.8945-11.367-1.8945-17.051-2.8398l-0.94531-47.359c0-4.7344-3.7891-8.5234-9.4727-8.5234-4.7344 0-8.5234 4.7344-8.5234 9.4727l0.94531 48.305c-5.6836 0.94531-11.367 1.8945-17.051 3.7891l-41.676-91.875c-2.8398-6.6289-10.418-9.4727-17.996-6.6289-6.6289 2.8398-9.4727 11.367-6.6289 17.996l41.676 91.875c-4.7344 2.8398-9.4727 6.6289-13.262 10.418l-48.305-45.465c-3.7891-2.8398-9.4727-2.8398-12.312 0-3.7891 3.7891-2.8398 9.4727 0 12.312l48.305 45.465c-3.7891 4.7344-6.6289 9.4727-9.4727 14.207l-120.29-47.363c-6.6289-2.8398-14.207 0.94531-17.051 7.5781-2.8398 6.6289 0.94531 14.207 7.5781 17.051l121.24 46.41c-0.94531 5.6836-1.8945 11.367-2.8398 17.051l-89.035 1.8906c-4.7344 0-8.5234 4.7344-8.5234 9.4727 0 4.7344 3.7891 8.5234 8.5234 8.5234l89.035-2.8398c0.94531 5.6836 1.8945 11.367 3.7891 17.051l-95.668 42.621c-6.6289 2.8398-9.4727 11.367-6.6289 17.996 2.8398 6.6289 10.418 10.418 17.996 6.6289l95.664-42.621c2.8398 4.7344 6.6289 9.4727 10.418 13.262l-14.207 15.156c-3.7891 3.7891-2.8398 9.4727 0 12.312 3.7891 2.8398 9.4727 2.8398 12.312 0l14.207-15.156c4.7344 3.7891 9.4727 6.6289 14.207 9.4727l-43.57 113.66c-2.8398 6.6289 0.94531 14.207 7.5781 17.051 6.6289 2.8398 14.207 0 17.051-7.5781l43.57-113.66c5.6836 0.94531 11.367 1.8945 17.051 2.8398l1.8945 48.305c0 4.7344 3.7891 8.5234 8.5234 8.5234s8.5234-4.7344 8.5234-9.4727l-0.94531-48.305c5.6836 0 11.367-1.8945 17.051-2.8398l41.676 91.875c2.8398 6.6289 11.367 9.4727 17.996 6.6289 6.6289-2.8398 9.4727-11.367 6.6289-17.996l-41.68-91.875c4.7344-2.8398 9.4727-6.6289 13.262-10.418l47.359 45.465c3.7891 2.8398 9.4727 3.7891 12.312 0 2.8398-3.7891 2.8398-9.4727 0-12.312l-47.359-45.465c3.7891-4.7344 6.6289-9.4727 9.4727-14.207 127.87 48.305 121.24 47.359 125.97 47.359 5.6836 0 10.418-2.8398 12.312-8.5234 2.8398-7.582-0.94922-15.16-7.5781-18zm-218.8 14.207c-45.465 0-83.352-36.938-83.352-83.352 0-45.465 36.938-83.352 83.352-83.352 45.465 0 83.352 36.938 83.352 83.352 0 45.465-37.887 83.352-83.352 83.352z"/>
  <path d="m441.36 376c0 35.992-29.363 65.355-65.355 65.355s-65.355-29.363-65.355-65.355 29.363-65.355 65.355-65.355c35.992 0.003907 65.355 29.363 65.355 65.355z"/>
  <path d="m441.36 376c0 35.992-29.363 65.355-65.355 65.355s-65.355-29.363-65.355-65.355 29.363-65.355 65.355-65.355c35.992 0.003907 65.355 29.363 65.355 65.355z"/>
 </g>
</svg>
