<?xml version="1.0" encoding="UTF-8"?>
<svg width="752pt" height="752pt" version="1.1" viewBox="0 0 752 752"
    xmlns="http://www.w3.org/2000/svg">
    <g>
        <path
            d="m570.01 265.52v21.367 51.195 62.25 54.617 27.703 0.64844 1.0156c0 0.97266-0.046875 1.9414-0.14062 2.9141-0.046875 0.41797-0.09375 0.83203-0.14062 1.25-0.18359 1.7578 0.27734-1.4336 0.046875-0.27734-0.64844 3.5156-1.6172 6.7969-2.7734 10.176-0.41797 1.1562 0.83203-1.6172 0.23047-0.50781-0.23047 0.46094-0.41797 0.92578-0.64844 1.3867-0.37109 0.73828-0.73828 1.4336-1.1094 2.1719-0.87891 1.5742-1.8516 3.1445-2.9141 4.625-0.14062 0.18359-0.60156 0.97266-0.69531 0.97266 0.046874 0 1.4336-1.7578 0.32422-0.46094-0.50781 0.60156-1.0156 1.25-1.5742 1.8516-1.2031 1.3398-2.4961 2.6367-3.8867 3.793-0.27734 0.23047-1.4805 1.5742-1.8516 1.5742 0.046875 0 1.8516-1.3398 0.41797-0.32422-0.32422 0.23047-0.64844 0.46094-0.97266 0.69531-1.4805 1.0156-3.0508 1.9883-4.6719 2.8672-0.73828 0.37109-1.4336 0.73828-2.1719 1.1094-0.18359 0.09375-1.0156 0.55469-1.1094 0.50781 0.27734 0.09375 1.8047-0.69531 0.50781-0.23047-1.7578 0.64844-3.4688 1.25-5.2734 1.7109-0.73828 0.18359-4.3477 1.4805-4.9023 1.0156 0.23047 0.18359 1.9883-0.23047 0.55469-0.09375-0.41797 0.046876-0.83203 0.09375-1.25 0.14063-1.0625 0.09375-2.1289 0.14062-3.2383 0.14062-5.3203 0.09375-10.59 0-15.91 0h-40.191-56.145-62.527-59.891-48.238-27.055-2.4062-0.46094-1.3398c-0.87891 0-1.7109-0.09375-2.5898-0.14062-0.41797-0.046876-0.83203-0.09375-1.25-0.14063-2.2188-0.18359 2.1289 0.41797-0.046875 0-1.6641-0.32422-3.2852-0.64844-4.9023-1.0625-0.78516-0.23047-1.5742-0.46094-2.3594-0.73828-0.50781-0.18359-2.6367-0.60156-2.8672-1.0625 0 0.046875 2.1289 0.97266 0.50781 0.18359-0.37109-0.18359-0.73828-0.32422-1.1094-0.50781-0.73828-0.37109-1.4336-0.73828-2.1719-1.1094-1.5742-0.87891-3.1445-1.8516-4.625-2.9141-0.18359-0.14062-0.92578-0.60156-0.97266-0.69531 0.09375 0.37109 1.4336 1.1562 0.46094 0.32422-0.60156-0.50781-1.25-1.0156-1.8516-1.5742-1.3398-1.2031-2.6367-2.4961-3.793-3.8867-0.27734-0.32422-1.5742-1.4805-1.5742-1.8516 0 0.37109 1.1094 1.4805 0.32422 0.41797-0.23047-0.32422-0.46094-0.64844-0.69531-0.97266-1.0156-1.4805-1.9883-3.0508-2.8672-4.6719-0.37109-0.73828-0.73828-1.4336-1.1094-2.1719 0 0-0.55469-1.0156-0.50781-1.1094-0.09375 0.27734 0.69531 1.7578 0.23047 0.50781-0.64844-1.7578-1.25-3.4688-1.7109-5.2734-0.23047-0.78516-0.41797-1.6172-0.55469-2.4492-0.09375-0.41797-0.18359-0.83203-0.23047-1.25-0.046875-0.18359-0.41797-2.2656-0.14062-0.64844 0.27734 1.4805-0.09375-1.25-0.14062-1.6172-0.09375-0.97266-0.09375-1.9414-0.14062-2.9141v-1.8516-9.2031-39.867-57.625-62.434-54.25-33.16-4.4844c-3.0977 3.0977-6.1523 6.1523-9.25 9.25h31.449 75.062 91.246 78.438c12.719 0 25.527 0.41797 38.246 0h0.50781l-9.25-9.25v10.73 28.535 40.375 46.617 47.359 41.902 30.984c0 4.8086 0.046874 9.6211 0 14.43-0.09375 6.7539 0.55469 13.504 2.1719 20.027 3.9766 16.418 14.613 30.477 31.125 35.703 4.9961 1.5742 10.406 2.2188 15.633 2.2656 4.8555 0.046875 9.4805-4.3008 9.25-9.25-0.23047-5.0859-4.0703-9.1562-9.25-9.25-1.2031 0-2.3594-0.046875-3.5625-0.14062-0.55469-0.046875-1.1094-0.09375-1.7109-0.14062-1.5742-0.14062 0.69531 0.09375 0.83203 0.14062-0.32422-0.09375-0.73828-0.09375-1.0625-0.18359-2.082-0.37109-4.1172-0.87891-6.1523-1.5742-0.46094-0.14063-0.87891-0.37109-1.3398-0.50781-0.92578-0.27734 1.2031 0.55469 1.1094 0.50781-0.23047-0.14063-0.60156-0.23047-0.83203-0.37109-0.87891-0.41797-1.7578-0.87891-2.5898-1.3398-0.73828-0.41797-1.4805-0.87891-2.2188-1.3867-0.37109-0.23047-0.69531-0.50781-1.0625-0.73828-0.78516-0.50781 1.1562 0.92578 1.0156 0.78516-0.23047-0.23047-0.55469-0.46094-0.78516-0.64844-1.2969-1.1094-2.4961-2.3125-3.6055-3.6055-0.27734-0.32422-0.50781-0.60156-0.78516-0.92578-0.97266-1.1094 1.2969 1.8047 0.46094 0.60156-0.50781-0.73828-1.0625-1.4805-1.5742-2.2656-0.87891-1.3867-1.6172-2.7734-2.3594-4.2539-0.18359-0.41797-0.37109-0.78516-0.55469-1.2031-0.64844-1.3867 0.14062 0.18359 0.32422 0.83203-0.23047-0.73828-0.60156-1.5273-0.87891-2.2656-0.97266-2.8203-1.7578-5.6875-2.3125-8.6016-0.14062-0.69531-0.23047-1.3398-0.37109-2.0352-0.046875-0.32422-0.09375-0.60156-0.14062-0.92578-0.27734-1.6172 0.27734 2.3594 0.14062 1.1562-0.14062-1.1562-0.27734-2.3125-0.37109-3.4688-0.18359-2.1719-0.18359-4.3477-0.14062-6.5195 0.046875-3.6992 0-7.3984 0-11.098v-28.305-40.004-46.109-46.711-41.762-31.309c0-5.0859 0.09375-10.176 0-15.262v-0.64844c0-4.9961-4.2539-9.25-9.25-9.25h-31.449-75.062-91.246-78.438c-12.719 0-25.527-0.27734-38.246 0h-0.50781c-4.9961 0-9.25 4.2539-9.25 9.25v18.453 46.434 60.723 62.109 49.715 24.281c0 10.777 2.8203 21.551 8.6484 30.664 8.5078 13.32 22.57 23.125 38.293 25.527 7.4922 1.1562 15.125 0.83203 22.66 0.83203h39.219 55.637 63.082 60.863 49.16 27.934c2.9141 0 5.7812 0 8.6484-0.32422 16.695-1.9414 31.172-10.359 40.977-24.051 6.707-9.3867 9.9883-21.043 9.9883-32.559v-8.9727-43.473-61.277-59.477-38.711-5.4102c0-4.8555-4.2539-9.4805-9.25-9.25-4.9141 0-9.168 3.8398-9.168 9.0195z" />
        <path
            d="m522.98 266.12v22.477 53.742 64.934 56.332c0 9.0664-0.23047 18.176 0 27.238v0.37109c0 4.8555 4.2539 9.4805 9.25 9.25 4.9961-0.23047 9.25-4.0703 9.25-9.25v-22.477-53.742-64.934-56.332c0-9.0664 0.23047-18.176 0-27.238v-0.37109c0-4.8555-4.2539-9.4805-9.25-9.25-5.0391 0.23047-9.25 4.0703-9.25 9.25z" />
        <path
            d="m215.75 298.35h22.707 54.48 65.902 56.93c9.2031 0 18.406 0.23047 27.609 0h0.41797c4.8555 0 9.4805-4.2539 9.25-9.25-0.23047-4.9961-4.0703-9.25-9.25-9.25h-22.707-54.48-65.902-56.93c-9.2031 0-18.406-0.23047-27.609 0h-0.41797c-4.8555 0-9.4805 4.2539-9.25 9.25 0.23438 5.0391 4.0703 9.25 9.25 9.25z" />
        <path
            d="m443.75 336.27h-22.707-54.48-65.902-56.93c-9.2031 0-18.406-0.23047-27.609 0h-0.41797c-4.8555 0-9.4805 4.2539-9.25 9.25 0.23047 4.9961 4.0703 9.25 9.25 9.25h22.707 54.48 65.902 56.93c9.2031 0 18.406 0.23047 27.609 0h0.41797c4.8555 0 9.4805-4.2539 9.25-9.25-0.23047-4.9961-4.0703-9.25-9.25-9.25z" />
        <path
            d="m215.75 411.2h48.051 75.984 17.48c4.8555 0 9.4805-4.2539 9.25-9.25-0.23047-4.9961-4.0703-9.25-9.25-9.25h-48.051-75.984-17.48c-4.8555 0-9.4805 4.2539-9.25 9.25 0.23438 5.043 4.0703 9.25 9.25 9.25z" />
        <path
            d="m357.27 449.16h-48.051-75.984-17.48c-4.8555 0-9.4805 4.2539-9.25 9.25 0.23047 4.9961 4.0703 9.25 9.25 9.25h48.051 75.984 17.48c4.8555 0 9.4805-4.2539 9.25-9.25-0.23047-5.0391-4.0703-9.25-9.25-9.25z" />
    </g>
</svg>
