<svg version="1.1" id="Layer_1" xmlns="http://www.w3.org/2000/svg"  x="0px" y="0px"
	viewBox="0 0 752 752" style="enable-background:new 0 0 752 752;" width="752px" height="752px" xml:space="preserve">
<g>
	<g transform="matrix(1 0 0 -1 0 480)">
		<path d="M605,104c0,60.8-21,113.3-62.8,157.4c-41.9,44.1-92.8,68-152.9,71.6h-7.1h-0.9h-1.8h-1.3H376c-63,0-116.9-22.4-161.8-67.1
			C169.4,221.2,147,167.2,147,104s22.4-117.2,67.2-161.9C259.1-102.6,313-125,376-125h2.3h2.3h0.9h0.9h7.1
			c60,3.6,111,27.5,152.8,71.6S605,43.2,605,104z M562.2,30.7c-15.4,4.2-36.2,7.7-62.4,10.7c3,20.3,4.4,41.2,4.4,62.6
			c0,16.7-0.9,33.4-2.7,50.1c29.7,3.6,51.1,7.4,64.2,11.6l-5.3,15.2c10.7-24.4,16-50.1,16-76.9C576.5,78.4,571.7,53.9,562.2,30.7z
			 M275.3,104c0,15.5,0.9,31,2.7,46.5c26.1-1.8,54.1-3,83.7-3.6V47.6c-29.1,0-56.5-0.9-82-2.7C276.8,64,275.3,83.7,275.3,104z
			 M389.3,302.6c17.8-5.4,33.7-19.2,47.7-41.6s24.2-49.6,30.8-81.9c-23.8-1.8-49.9-3-78.4-3.6V302.6L389.3,302.6z M361.7,301.7
			V175.6c-27.9,0.6-54.3,1.8-79.3,3.6c7.1,32.2,17.8,59.3,32,81.4C328.7,282.6,344.5,296.3,361.7,301.7z M361.7,19V-93.6
			c-16,4.8-30.9,17-44.5,36.7c-13.6,19.7-24.1,44.2-31.2,73.3C309.2,18.1,334.4,19,361.7,19z M389.3-94.6V19
			c27.3,0,52.6-0.9,75.8-2.7c-7.1-29.2-17.4-53.8-30.8-73.8C421-77.4,406-89.8,389.3-94.6z M389.3,47.7v99.3
			c30.3,0.6,58.2,1.8,83.7,3.6c1.8-15.5,2.7-31,2.7-46.5c0-20.3-1.5-40.3-4.4-59.9C446.4,46.4,419.1,47.7,389.3,47.7z M555.1,192.6
			c-13.1-4.2-32.4-7.7-57.9-10.7c-8.3,43.5-22.3,79-41.9,106.5C500.4,268.6,533.7,236.7,555.1,192.6z M307.4,292.7
			c-24.4-28.6-41.9-65.6-52.6-110.9c-24.4,2.4-44,5.4-58.8,9C219.8,240.2,256.9,274.3,307.4,292.7z M185.3,163.9
			c15.4-4.2,37.1-7.7,65-10.7c-2.4-16.1-3.5-32.5-3.5-49.2c0-20.9,1.8-41.4,5.3-61.8c-25.6-3-46.3-6.6-62.4-10.7
			c-9.5,23.3-14.3,47.4-14.3,72.5C175.5,124.9,178.8,144.9,185.3,163.9z M202.2,5.6c15.4,3,34.2,5.7,56.2,8c10.7-40,27-72.8,49-98.4
			C261.6-67.4,226.6-37.3,202.2,5.6z M455.3-80.3c17.8,24.4,30.9,55.7,39.2,93.9c22-2.4,40.4-5.7,55.2-9.9
			C527.2-34.4,495.7-62.4,455.3-80.3z"/>
	</g>
</g>
</svg>